<mxfile host="app.diagrams.net" modified="2023-11-04T09:50:19.246Z" agent="Mozilla/5.0 (Windows NT 10.0; Win64; x64) AppleWebKit/537.36 (KHTML, like Gecko) Chrome/118.0.0.0 Safari/537.36 Edg/118.0.2088.46" etag="KgioN7bgZK91RukPnyov" version="22.0.8" type="github">
  <diagram name="Page-1" id="b520641d-4fe3-3701-9064-5fc419738815">
    <mxGraphModel dx="5704" dy="3036" grid="1" gridSize="6" guides="1" tooltips="1" connect="1" arrows="1" fold="1" page="1" pageScale="1" pageWidth="2000" pageHeight="2000" background="none" math="0" shadow="0">
      <root>
        <mxCell id="0" />
        <mxCell id="1" parent="0" />
        <mxCell id="J-nFgPOJLoA2Msl5_oLe-6" style="edgeStyle=orthogonalEdgeStyle;rounded=0;orthogonalLoop=1;jettySize=auto;html=1;exitX=0.25;exitY=1;exitDx=0;exitDy=0;entryX=0.5;entryY=0;entryDx=0;entryDy=0;" edge="1" parent="1" source="J-nFgPOJLoA2Msl5_oLe-2" target="J-nFgPOJLoA2Msl5_oLe-4">
          <mxGeometry relative="1" as="geometry" />
        </mxCell>
        <mxCell id="J-nFgPOJLoA2Msl5_oLe-7" style="edgeStyle=orthogonalEdgeStyle;rounded=0;orthogonalLoop=1;jettySize=auto;html=1;exitX=0.75;exitY=1;exitDx=0;exitDy=0;entryX=0.5;entryY=0;entryDx=0;entryDy=0;" edge="1" parent="1" source="J-nFgPOJLoA2Msl5_oLe-2" target="J-nFgPOJLoA2Msl5_oLe-5">
          <mxGeometry relative="1" as="geometry" />
        </mxCell>
        <mxCell id="J-nFgPOJLoA2Msl5_oLe-2" value="&lt;font style=&quot;font-size: 24px;&quot;&gt;Activate (time_ms)&lt;/font&gt;" style="text;html=1;strokeColor=default;fillColor=none;align=center;verticalAlign=middle;whiteSpace=wrap;rounded=0;" vertex="1" parent="1">
          <mxGeometry x="216" y="24" width="380" height="90" as="geometry" />
        </mxCell>
        <mxCell id="J-nFgPOJLoA2Msl5_oLe-26" style="edgeStyle=orthogonalEdgeStyle;rounded=0;orthogonalLoop=1;jettySize=auto;html=1;exitX=0.5;exitY=1;exitDx=0;exitDy=0;entryX=0.5;entryY=0;entryDx=0;entryDy=0;" edge="1" parent="1" source="J-nFgPOJLoA2Msl5_oLe-4" target="J-nFgPOJLoA2Msl5_oLe-14">
          <mxGeometry relative="1" as="geometry" />
        </mxCell>
        <mxCell id="J-nFgPOJLoA2Msl5_oLe-4" value="&lt;font style=&quot;font-size: 24px;&quot;&gt;LRU_monitor_activate (time_ms)&lt;/font&gt;" style="text;html=1;strokeColor=default;fillColor=none;align=center;verticalAlign=middle;whiteSpace=wrap;rounded=0;" vertex="1" parent="1">
          <mxGeometry x="12" y="282" width="380" height="90" as="geometry" />
        </mxCell>
        <mxCell id="J-nFgPOJLoA2Msl5_oLe-5" value="&lt;font style=&quot;font-size: 24px;&quot;&gt;UIO_activate (time_ms)&lt;/font&gt;" style="text;html=1;strokeColor=default;fillColor=none;align=center;verticalAlign=middle;whiteSpace=wrap;rounded=0;" vertex="1" parent="1">
          <mxGeometry x="450" y="282" width="380" height="90" as="geometry" />
        </mxCell>
        <mxCell id="J-nFgPOJLoA2Msl5_oLe-8" style="edgeStyle=orthogonalEdgeStyle;rounded=0;orthogonalLoop=1;jettySize=auto;html=1;exitX=0.25;exitY=1;exitDx=0;exitDy=0;entryX=0.5;entryY=0;entryDx=0;entryDy=0;" edge="1" parent="1" source="J-nFgPOJLoA2Msl5_oLe-10" target="J-nFgPOJLoA2Msl5_oLe-11">
          <mxGeometry relative="1" as="geometry" />
        </mxCell>
        <mxCell id="J-nFgPOJLoA2Msl5_oLe-9" style="edgeStyle=orthogonalEdgeStyle;rounded=0;orthogonalLoop=1;jettySize=auto;html=1;exitX=0.75;exitY=1;exitDx=0;exitDy=0;entryX=0.5;entryY=0;entryDx=0;entryDy=0;" edge="1" parent="1" source="J-nFgPOJLoA2Msl5_oLe-10" target="J-nFgPOJLoA2Msl5_oLe-12">
          <mxGeometry relative="1" as="geometry" />
        </mxCell>
        <mxCell id="J-nFgPOJLoA2Msl5_oLe-10" value="&lt;font style=&quot;font-size: 24px;&quot;&gt;Init (time_ms)&lt;/font&gt;" style="text;html=1;strokeColor=default;fillColor=none;align=center;verticalAlign=middle;whiteSpace=wrap;rounded=0;" vertex="1" parent="1">
          <mxGeometry x="1122" y="24" width="380" height="90" as="geometry" />
        </mxCell>
        <mxCell id="J-nFgPOJLoA2Msl5_oLe-11" value="&lt;font style=&quot;font-size: 24px;&quot;&gt;LRU_monitor_init (time_ms)&lt;/font&gt;" style="text;html=1;strokeColor=default;fillColor=none;align=center;verticalAlign=middle;whiteSpace=wrap;rounded=0;" vertex="1" parent="1">
          <mxGeometry x="1122" y="168" width="380" height="90" as="geometry" />
        </mxCell>
        <mxCell id="J-nFgPOJLoA2Msl5_oLe-12" value="&lt;font style=&quot;font-size: 24px;&quot;&gt;UIO_init (time_ms)&lt;/font&gt;" style="text;html=1;strokeColor=default;fillColor=none;align=center;verticalAlign=middle;whiteSpace=wrap;rounded=0;" vertex="1" parent="1">
          <mxGeometry x="1578" y="168" width="380" height="90" as="geometry" />
        </mxCell>
        <mxCell id="J-nFgPOJLoA2Msl5_oLe-14" value="List" style="swimlane;fontStyle=0;childLayout=stackLayout;horizontal=1;startSize=30;horizontalStack=0;resizeParent=1;resizeParentMax=0;resizeLast=0;collapsible=1;marginBottom=0;whiteSpace=wrap;html=1;strokeWidth=3;fontSize=17;" vertex="1" parent="1">
          <mxGeometry x="132" y="444" width="140" height="120" as="geometry" />
        </mxCell>
        <mxCell id="J-nFgPOJLoA2Msl5_oLe-15" value="ReadEvents()" style="text;strokeColor=none;fillColor=none;align=left;verticalAlign=middle;spacingLeft=4;spacingRight=4;overflow=hidden;points=[[0,0.5],[1,0.5]];portConstraint=eastwest;rotatable=0;whiteSpace=wrap;html=1;fontSize=17;" vertex="1" parent="J-nFgPOJLoA2Msl5_oLe-14">
          <mxGeometry y="30" width="140" height="30" as="geometry" />
        </mxCell>
        <mxCell id="J-nFgPOJLoA2Msl5_oLe-16" value="ReadLRU()" style="text;strokeColor=none;fillColor=none;align=left;verticalAlign=middle;spacingLeft=4;spacingRight=4;overflow=hidden;points=[[0,0.5],[1,0.5]];portConstraint=eastwest;rotatable=0;whiteSpace=wrap;html=1;fontSize=17;" vertex="1" parent="J-nFgPOJLoA2Msl5_oLe-14">
          <mxGeometry y="60" width="140" height="30" as="geometry" />
        </mxCell>
        <mxCell id="J-nFgPOJLoA2Msl5_oLe-17" value="WriteLRU()" style="text;strokeColor=none;fillColor=none;align=left;verticalAlign=middle;spacingLeft=4;spacingRight=4;overflow=hidden;points=[[0,0.5],[1,0.5]];portConstraint=eastwest;rotatable=0;whiteSpace=wrap;html=1;fontSize=17;" vertex="1" parent="J-nFgPOJLoA2Msl5_oLe-14">
          <mxGeometry y="90" width="140" height="30" as="geometry" />
        </mxCell>
        <mxCell id="J-nFgPOJLoA2Msl5_oLe-23" style="edgeStyle=orthogonalEdgeStyle;rounded=0;orthogonalLoop=1;jettySize=auto;html=1;entryX=1;entryY=0.5;entryDx=0;entryDy=0;" edge="1" parent="1" source="J-nFgPOJLoA2Msl5_oLe-22" target="J-nFgPOJLoA2Msl5_oLe-17">
          <mxGeometry relative="1" as="geometry" />
        </mxCell>
        <mxCell id="J-nFgPOJLoA2Msl5_oLe-22" value="LRU_Output - Lua Table { }" style="text;strokeColor=default;fillColor=none;align=left;verticalAlign=middle;spacingLeft=4;spacingRight=4;overflow=hidden;points=[[0,0.5],[1,0.5]];portConstraint=eastwest;rotatable=0;whiteSpace=wrap;html=1;fontSize=17;" vertex="1" parent="1">
          <mxGeometry x="312" y="534" width="222" height="30" as="geometry" />
        </mxCell>
      </root>
    </mxGraphModel>
  </diagram>
</mxfile>
